<mxfile host="app.diagrams.net" modified="2023-10-21T04:34:51.171Z" agent="Mozilla/5.0 (Windows NT 10.0; Win64; x64) AppleWebKit/537.36 (KHTML, like Gecko) Chrome/118.0.0.0 Safari/537.36 Edg/118.0.2088.57" etag="AixQPYi-FSXcYaZosw9f" version="22.0.6" type="google" pages="2">
  <diagram id="abg8H4SXwgfv_fLTDkcQ" name="login">
    <mxGraphModel grid="1" page="1" gridSize="10" guides="1" tooltips="1" connect="1" arrows="1" fold="1" pageScale="1" pageWidth="827" pageHeight="1169" math="0" shadow="0">
      <root>
        <mxCell id="0" />
        <mxCell id="1" parent="0" />
        <mxCell id="m-qB5-3rkOYVhWV_qZzG-1" value="Login - ForgotPasswordView" style="swimlane;fontStyle=1;align=center;verticalAlign=top;childLayout=stackLayout;horizontal=1;startSize=26;horizontalStack=0;resizeParent=1;resizeLast=0;collapsible=1;marginBottom=0;rounded=1;shadow=0;strokeWidth=1;fontSize=15;fillColor=#FAE5C7;strokeColor=#0F8B8D;labelBackgroundColor=none;fontColor=#143642;" vertex="1" parent="1">
          <mxGeometry x="-157.5" y="16" width="307.5" height="204" as="geometry">
            <mxRectangle x="230" y="140" width="160" height="26" as="alternateBounds" />
          </mxGeometry>
        </mxCell>
        <mxCell id="m-qB5-3rkOYVhWV_qZzG-2" value="-controller: Login - ForgotPasswordController" style="text;align=left;verticalAlign=top;spacingLeft=4;spacingRight=4;overflow=hidden;rotatable=0;points=[[0,0.5],[1,0.5]];portConstraint=eastwest;fontSize=15;rounded=1;labelBackgroundColor=none;fontColor=#143642;" vertex="1" parent="m-qB5-3rkOYVhWV_qZzG-1">
          <mxGeometry y="26" width="307.5" height="26" as="geometry" />
        </mxCell>
        <mxCell id="m-qB5-3rkOYVhWV_qZzG-3" value="" style="line;html=1;strokeWidth=1;align=left;verticalAlign=middle;spacingTop=-1;spacingLeft=3;spacingRight=3;rotatable=0;labelPosition=right;points=[];portConstraint=eastwest;fontSize=15;rounded=1;labelBackgroundColor=none;fillColor=#FAE5C7;strokeColor=#0F8B8D;fontColor=#143642;" vertex="1" parent="m-qB5-3rkOYVhWV_qZzG-1">
          <mxGeometry y="52" width="307.5" height="8" as="geometry" />
        </mxCell>
        <mxCell id="m-qB5-3rkOYVhWV_qZzG-4" value="+ onViewlogin()" style="text;align=left;verticalAlign=top;spacingLeft=4;spacingRight=4;overflow=hidden;rotatable=0;points=[[0,0.5],[1,0.5]];portConstraint=eastwest;fontSize=15;rounded=1;labelBackgroundColor=none;fontColor=#143642;" vertex="1" parent="m-qB5-3rkOYVhWV_qZzG-1">
          <mxGeometry y="60" width="307.5" height="26" as="geometry" />
        </mxCell>
        <mxCell id="m-qB5-3rkOYVhWV_qZzG-5" value="+ loginButton" style="text;align=left;verticalAlign=top;spacingLeft=4;spacingRight=4;overflow=hidden;rotatable=0;points=[[0,0.5],[1,0.5]];portConstraint=eastwest;fontSize=15;rounded=1;labelBackgroundColor=none;fontColor=#143642;" vertex="1" parent="m-qB5-3rkOYVhWV_qZzG-1">
          <mxGeometry y="86" width="307.5" height="26" as="geometry" />
        </mxCell>
        <mxCell id="m-qB5-3rkOYVhWV_qZzG-6" value="&amp;nbsp;+ logOutButton()" style="text;whiteSpace=wrap;html=1;fontSize=15;rounded=1;labelBackgroundColor=none;fontColor=#143642;" vertex="1" parent="m-qB5-3rkOYVhWV_qZzG-1">
          <mxGeometry y="112" width="307.5" height="28" as="geometry" />
        </mxCell>
        <mxCell id="m-qB5-3rkOYVhWV_qZzG-7" value="+ forgotPassWordButton()" style="text;align=left;verticalAlign=top;spacingLeft=4;spacingRight=4;overflow=hidden;rotatable=0;points=[[0,0.5],[1,0.5]];portConstraint=eastwest;fontSize=15;rounded=1;labelBackgroundColor=none;fontColor=#143642;" vertex="1" parent="m-qB5-3rkOYVhWV_qZzG-1">
          <mxGeometry y="140" width="307.5" height="23" as="geometry" />
        </mxCell>
        <mxCell id="m-qB5-3rkOYVhWV_qZzG-60" value="&amp;nbsp;+ refresh()" style="text;whiteSpace=wrap;html=1;fontSize=15;rounded=1;labelBackgroundColor=none;fontColor=#143642;" vertex="1" parent="m-qB5-3rkOYVhWV_qZzG-1">
          <mxGeometry y="163" width="307.5" height="30" as="geometry" />
        </mxCell>
        <mxCell id="m-qB5-3rkOYVhWV_qZzG-9" value="Login - ForgotPasswordController" style="swimlane;fontStyle=1;align=center;verticalAlign=top;childLayout=stackLayout;horizontal=1;startSize=26;horizontalStack=0;resizeParent=1;resizeLast=0;collapsible=1;marginBottom=0;rounded=1;shadow=0;strokeWidth=1;fontSize=15;fillColor=#FAE5C7;strokeColor=#0F8B8D;labelBackgroundColor=none;fontColor=#143642;" vertex="1" parent="1">
          <mxGeometry x="482" y="16" width="428" height="194" as="geometry">
            <mxRectangle x="550" y="140" width="160" height="26" as="alternateBounds" />
          </mxGeometry>
        </mxCell>
        <mxCell id="m-qB5-3rkOYVhWV_qZzG-10" value="-Login - ForgotPasswordModel: Login - ForgotPasswordModel" style="text;align=left;verticalAlign=top;spacingLeft=4;spacingRight=4;overflow=hidden;rotatable=0;points=[[0,0.5],[1,0.5]];portConstraint=eastwest;fontSize=15;rounded=1;labelBackgroundColor=none;fontColor=#143642;" vertex="1" parent="m-qB5-3rkOYVhWV_qZzG-9">
          <mxGeometry y="26" width="428" height="26" as="geometry" />
        </mxCell>
        <mxCell id="m-qB5-3rkOYVhWV_qZzG-11" value="" style="line;html=1;strokeWidth=1;align=left;verticalAlign=middle;spacingTop=-1;spacingLeft=3;spacingRight=3;rotatable=0;labelPosition=right;points=[];portConstraint=eastwest;fontSize=15;rounded=1;labelBackgroundColor=none;fillColor=#FAE5C7;strokeColor=#0F8B8D;fontColor=#143642;" vertex="1" parent="m-qB5-3rkOYVhWV_qZzG-9">
          <mxGeometry y="52" width="428" height="8" as="geometry" />
        </mxCell>
        <mxCell id="m-qB5-3rkOYVhWV_qZzG-12" value="+ create(): SystemConfigurationController" style="text;align=left;verticalAlign=top;spacingLeft=4;spacingRight=4;overflow=hidden;rotatable=0;points=[[0,0.5],[1,0.5]];portConstraint=eastwest;fontSize=15;rounded=1;labelBackgroundColor=none;fontColor=#143642;" vertex="1" parent="m-qB5-3rkOYVhWV_qZzG-9">
          <mxGeometry y="60" width="428" height="26" as="geometry" />
        </mxCell>
        <mxCell id="m-qB5-3rkOYVhWV_qZzG-58" value="+ login(userName,passWord)" style="text;align=left;verticalAlign=top;spacingLeft=4;spacingRight=4;overflow=hidden;rotatable=0;points=[[0,0.5],[1,0.5]];portConstraint=eastwest;fontSize=15;rounded=1;labelBackgroundColor=none;fontColor=#143642;" vertex="1" parent="m-qB5-3rkOYVhWV_qZzG-9">
          <mxGeometry y="86" width="428" height="26" as="geometry" />
        </mxCell>
        <mxCell id="m-qB5-3rkOYVhWV_qZzG-14" value="&amp;nbsp;+ changePass()" style="text;whiteSpace=wrap;html=1;fontSize=15;rounded=1;labelBackgroundColor=none;fontColor=#143642;" vertex="1" parent="m-qB5-3rkOYVhWV_qZzG-9">
          <mxGeometry y="112" width="428" height="30" as="geometry" />
        </mxCell>
        <mxCell id="m-qB5-3rkOYVhWV_qZzG-57" value="&amp;nbsp;+ updateView()" style="text;whiteSpace=wrap;html=1;fontSize=15;rounded=1;labelBackgroundColor=none;fontColor=#143642;" vertex="1" parent="m-qB5-3rkOYVhWV_qZzG-9">
          <mxGeometry y="142" width="428" height="30" as="geometry" />
        </mxCell>
        <mxCell id="m-qB5-3rkOYVhWV_qZzG-20" value="Login - ForgotPasswordModel" style="swimlane;fontStyle=1;align=center;verticalAlign=top;childLayout=stackLayout;horizontal=1;startSize=26;horizontalStack=0;resizeParent=1;resizeLast=0;collapsible=1;marginBottom=0;rounded=1;shadow=0;strokeWidth=1;fontSize=15;fillColor=#FAE5C7;strokeColor=#0F8B8D;labelBackgroundColor=none;fontColor=#143642;" vertex="1" parent="1">
          <mxGeometry x="519.5" y="350" width="353" height="210" as="geometry">
            <mxRectangle x="550" y="140" width="160" height="26" as="alternateBounds" />
          </mxGeometry>
        </mxCell>
        <mxCell id="m-qB5-3rkOYVhWV_qZzG-21" value="- views: Collection &lt;Login - ForgotPasswordView&gt;" style="text;align=left;verticalAlign=top;spacingLeft=4;spacingRight=4;overflow=hidden;rotatable=0;points=[[0,0.5],[1,0.5]];portConstraint=eastwest;fontSize=15;rounded=1;labelBackgroundColor=none;fontColor=#143642;" vertex="1" parent="m-qB5-3rkOYVhWV_qZzG-20">
          <mxGeometry y="26" width="353" height="26" as="geometry" />
        </mxCell>
        <mxCell id="m-qB5-3rkOYVhWV_qZzG-22" value="" style="line;html=1;strokeWidth=1;align=left;verticalAlign=middle;spacingTop=-1;spacingLeft=3;spacingRight=3;rotatable=0;labelPosition=right;points=[];portConstraint=eastwest;fontSize=15;rounded=1;labelBackgroundColor=none;fillColor=#FAE5C7;strokeColor=#0F8B8D;fontColor=#143642;" vertex="1" parent="m-qB5-3rkOYVhWV_qZzG-20">
          <mxGeometry y="52" width="353" height="8" as="geometry" />
        </mxCell>
        <mxCell id="m-qB5-3rkOYVhWV_qZzG-23" value="+ create(): Login - ForgotPasswordView" style="text;align=left;verticalAlign=top;spacingLeft=4;spacingRight=4;overflow=hidden;rotatable=0;points=[[0,0.5],[1,0.5]];portConstraint=eastwest;fontSize=15;rounded=1;labelBackgroundColor=none;fontColor=#143642;" vertex="1" parent="m-qB5-3rkOYVhWV_qZzG-20">
          <mxGeometry y="60" width="353" height="26" as="geometry" />
        </mxCell>
        <mxCell id="m-qB5-3rkOYVhWV_qZzG-25" value="+ verifyAccount()&#xa;" style="text;align=left;verticalAlign=top;spacingLeft=4;spacingRight=4;overflow=hidden;rotatable=0;points=[[0,0.5],[1,0.5]];portConstraint=eastwest;fontSize=15;rounded=1;labelBackgroundColor=none;fontColor=#143642;" vertex="1" parent="m-qB5-3rkOYVhWV_qZzG-20">
          <mxGeometry y="86" width="353" height="26" as="geometry" />
        </mxCell>
        <mxCell id="m-qB5-3rkOYVhWV_qZzG-26" value="+ checkInput()" style="text;align=left;verticalAlign=top;spacingLeft=4;spacingRight=4;overflow=hidden;rotatable=0;points=[[0,0.5],[1,0.5]];portConstraint=eastwest;fontSize=15;rounded=1;labelBackgroundColor=none;fontColor=#143642;" vertex="1" parent="m-qB5-3rkOYVhWV_qZzG-20">
          <mxGeometry y="112" width="353" height="26" as="geometry" />
        </mxCell>
        <mxCell id="m-qB5-3rkOYVhWV_qZzG-24" value="&amp;nbsp;+ updateState()" style="text;whiteSpace=wrap;html=1;fontSize=15;rounded=1;labelBackgroundColor=none;fontColor=#143642;" vertex="1" parent="m-qB5-3rkOYVhWV_qZzG-20">
          <mxGeometry y="138" width="353" height="30" as="geometry" />
        </mxCell>
        <mxCell id="m-qB5-3rkOYVhWV_qZzG-61" value="&amp;nbsp;+ updateView()" style="text;whiteSpace=wrap;html=1;fontSize=15;rounded=1;labelBackgroundColor=none;fontColor=#143642;" vertex="1" parent="m-qB5-3rkOYVhWV_qZzG-20">
          <mxGeometry y="168" width="353" height="30" as="geometry" />
        </mxCell>
        <mxCell id="m-qB5-3rkOYVhWV_qZzG-47" value="User" style="swimlane;fontStyle=1;align=center;verticalAlign=top;childLayout=stackLayout;horizontal=1;startSize=26;horizontalStack=0;resizeParent=1;resizeLast=0;collapsible=1;marginBottom=0;rounded=1;shadow=0;strokeWidth=1;fontSize=15;fillColor=#FAE5C7;strokeColor=#0F8B8D;labelBackgroundColor=none;fontColor=#143642;" vertex="1" parent="1">
          <mxGeometry x="-138.37" y="360" width="269.25" height="250" as="geometry">
            <mxRectangle x="550" y="140" width="160" height="26" as="alternateBounds" />
          </mxGeometry>
        </mxCell>
        <mxCell id="m-qB5-3rkOYVhWV_qZzG-48" value="- id: Integer    &#xa;&#xa;" style="text;align=left;verticalAlign=top;spacingLeft=4;spacingRight=4;overflow=hidden;rotatable=0;points=[[0,0.5],[1,0.5]];portConstraint=eastwest;fontSize=15;rounded=1;labelBackgroundColor=none;fontColor=#143642;" vertex="1" parent="m-qB5-3rkOYVhWV_qZzG-47">
          <mxGeometry y="26" width="269.25" height="26" as="geometry" />
        </mxCell>
        <mxCell id="m-qB5-3rkOYVhWV_qZzG-49" value="- name: String" style="text;align=left;verticalAlign=top;spacingLeft=4;spacingRight=4;overflow=hidden;rotatable=0;points=[[0,0.5],[1,0.5]];portConstraint=eastwest;fontSize=15;rounded=1;labelBackgroundColor=none;fontColor=#143642;" vertex="1" parent="m-qB5-3rkOYVhWV_qZzG-47">
          <mxGeometry y="52" width="269.25" height="26" as="geometry" />
        </mxCell>
        <mxCell id="m-qB5-3rkOYVhWV_qZzG-64" value="- email: String" style="text;align=left;verticalAlign=top;spacingLeft=4;spacingRight=4;overflow=hidden;rotatable=0;points=[[0,0.5],[1,0.5]];portConstraint=eastwest;fontSize=15;rounded=1;labelBackgroundColor=none;fontColor=#143642;" vertex="1" parent="m-qB5-3rkOYVhWV_qZzG-47">
          <mxGeometry y="78" width="269.25" height="26" as="geometry" />
        </mxCell>
        <mxCell id="m-qB5-3rkOYVhWV_qZzG-65" value="- passWord: String" style="text;align=left;verticalAlign=top;spacingLeft=4;spacingRight=4;overflow=hidden;rotatable=0;points=[[0,0.5],[1,0.5]];portConstraint=eastwest;fontSize=15;rounded=1;labelBackgroundColor=none;fontColor=#143642;" vertex="1" parent="m-qB5-3rkOYVhWV_qZzG-47">
          <mxGeometry y="104" width="269.25" height="26" as="geometry" />
        </mxCell>
        <mxCell id="m-qB5-3rkOYVhWV_qZzG-66" value="- role: String" style="text;align=left;verticalAlign=top;spacingLeft=4;spacingRight=4;overflow=hidden;rotatable=0;points=[[0,0.5],[1,0.5]];portConstraint=eastwest;fontSize=15;rounded=1;labelBackgroundColor=none;fontColor=#143642;" vertex="1" parent="m-qB5-3rkOYVhWV_qZzG-47">
          <mxGeometry y="130" width="269.25" height="26" as="geometry" />
        </mxCell>
        <mxCell id="m-qB5-3rkOYVhWV_qZzG-67" value="- balance: Integer" style="text;align=left;verticalAlign=top;spacingLeft=4;spacingRight=4;overflow=hidden;rotatable=0;points=[[0,0.5],[1,0.5]];portConstraint=eastwest;fontSize=15;rounded=1;labelBackgroundColor=none;fontColor=#143642;" vertex="1" parent="m-qB5-3rkOYVhWV_qZzG-47">
          <mxGeometry y="156" width="269.25" height="26" as="geometry" />
        </mxCell>
        <mxCell id="m-qB5-3rkOYVhWV_qZzG-78" value="- printingLog: Object" style="text;align=left;verticalAlign=top;spacingLeft=4;spacingRight=4;overflow=hidden;rotatable=0;points=[[0,0.5],[1,0.5]];portConstraint=eastwest;fontSize=15;rounded=1;labelBackgroundColor=none;fontColor=#143642;" vertex="1" parent="m-qB5-3rkOYVhWV_qZzG-47">
          <mxGeometry y="182" width="269.25" height="26" as="geometry" />
        </mxCell>
        <mxCell id="m-qB5-3rkOYVhWV_qZzG-79" value="- paymentLog: Object" style="text;align=left;verticalAlign=top;spacingLeft=4;spacingRight=4;overflow=hidden;rotatable=0;points=[[0,0.5],[1,0.5]];portConstraint=eastwest;fontSize=15;rounded=1;labelBackgroundColor=none;fontColor=#143642;" vertex="1" parent="m-qB5-3rkOYVhWV_qZzG-47">
          <mxGeometry y="208" width="269.25" height="26" as="geometry" />
        </mxCell>
        <mxCell id="m-qB5-3rkOYVhWV_qZzG-52" value="" style="endArrow=open;endFill=1;endSize=12;html=1;rounded=1;labelBackgroundColor=none;strokeColor=#A8201A;fontColor=default;entryX=1;entryY=0.5;entryDx=0;entryDy=0;" edge="1" parent="1" target="m-qB5-3rkOYVhWV_qZzG-65">
          <mxGeometry width="160" relative="1" as="geometry">
            <mxPoint x="520" y="477" as="sourcePoint" />
            <mxPoint x="681" y="669" as="targetPoint" />
            <Array as="points" />
          </mxGeometry>
        </mxCell>
        <mxCell id="m-qB5-3rkOYVhWV_qZzG-54" value="" style="endArrow=open;endFill=1;endSize=12;html=1;rounded=1;exitX=0;exitY=0.5;exitDx=0;exitDy=0;labelBackgroundColor=none;strokeColor=#A8201A;fontColor=default;" edge="1" parent="1" source="m-qB5-3rkOYVhWV_qZzG-21">
          <mxGeometry width="160" relative="1" as="geometry">
            <mxPoint x="173" y="461" as="sourcePoint" />
            <mxPoint x="150" y="210" as="targetPoint" />
            <Array as="points" />
          </mxGeometry>
        </mxCell>
        <mxCell id="m-qB5-3rkOYVhWV_qZzG-55" value="" style="endArrow=open;endFill=1;endSize=12;html=1;rounded=1;entryX=0.5;entryY=0;entryDx=0;entryDy=0;labelBackgroundColor=none;strokeColor=#A8201A;fontColor=default;exitX=0.5;exitY=1;exitDx=0;exitDy=0;" edge="1" parent="1" source="m-qB5-3rkOYVhWV_qZzG-9" target="m-qB5-3rkOYVhWV_qZzG-20">
          <mxGeometry width="160" relative="1" as="geometry">
            <mxPoint x="681" y="240" as="sourcePoint" />
            <mxPoint x="166" y="202" as="targetPoint" />
            <Array as="points" />
          </mxGeometry>
        </mxCell>
        <mxCell id="m-qB5-3rkOYVhWV_qZzG-56" value="" style="endArrow=diamondThin;endFill=0;endSize=24;html=1;rounded=0;entryX=1;entryY=0.5;entryDx=0;entryDy=0;exitX=0;exitY=0.5;exitDx=0;exitDy=0;labelBackgroundColor=none;strokeColor=#A8201A;fontColor=default;" edge="1" parent="1" source="m-qB5-3rkOYVhWV_qZzG-14" target="m-qB5-3rkOYVhWV_qZzG-6">
          <mxGeometry width="160" relative="1" as="geometry">
            <mxPoint x="482" y="158.0000000000001" as="sourcePoint" />
            <mxPoint x="472" y="198" as="targetPoint" />
          </mxGeometry>
        </mxCell>
        <mxCell id="m-qB5-3rkOYVhWV_qZzG-84" value="Use" style="text;html=1;align=center;verticalAlign=middle;resizable=0;points=[];autosize=1;strokeColor=none;fillColor=none;fontColor=#143642;" vertex="1" parent="1">
          <mxGeometry x="700" y="258" width="40" height="30" as="geometry" />
        </mxCell>
        <mxCell id="m-qB5-3rkOYVhWV_qZzG-85" value="Use" style="text;html=1;align=center;verticalAlign=middle;resizable=0;points=[];autosize=1;strokeColor=none;fillColor=none;fontColor=#143642;" vertex="1" parent="1">
          <mxGeometry x="300" y="450" width="40" height="30" as="geometry" />
        </mxCell>
        <mxCell id="m-qB5-3rkOYVhWV_qZzG-86" value="Update" style="text;html=1;align=center;verticalAlign=middle;resizable=0;points=[];autosize=1;strokeColor=none;fillColor=none;fontColor=#143642;" vertex="1" parent="1">
          <mxGeometry x="290" y="110" width="60" height="30" as="geometry" />
        </mxCell>
      </root>
    </mxGraphModel>
  </diagram>
  <diagram name="Trang-1" id="YRkLIzftzI1pAnJqtMgi">
    <mxGraphModel grid="0" page="1" gridSize="10" guides="1" tooltips="1" connect="1" arrows="1" fold="1" pageScale="1" pageWidth="827" pageHeight="1169" math="0" shadow="0">
      <root>
        <mxCell id="0" />
        <mxCell id="1" parent="0" />
        <mxCell id="pIEZG5tYGIGVXU5daji7-1" value="SystemConfigurationView" style="swimlane;fontStyle=1;align=center;verticalAlign=top;childLayout=stackLayout;horizontal=1;startSize=26;horizontalStack=0;resizeParent=1;resizeLast=0;collapsible=1;marginBottom=0;rounded=1;shadow=0;strokeWidth=1;fontSize=15;fillColor=#FAE5C7;strokeColor=#0F8B8D;labelBackgroundColor=none;fontColor=#143642;" vertex="1" parent="1">
          <mxGeometry x="-157.5" y="16" width="299" height="178" as="geometry">
            <mxRectangle x="230" y="140" width="160" height="26" as="alternateBounds" />
          </mxGeometry>
        </mxCell>
        <mxCell id="pIEZG5tYGIGVXU5daji7-2" value="-controller: SystemConfigurationController" style="text;align=left;verticalAlign=top;spacingLeft=4;spacingRight=4;overflow=hidden;rotatable=0;points=[[0,0.5],[1,0.5]];portConstraint=eastwest;fontSize=15;rounded=1;labelBackgroundColor=none;fontColor=#143642;" vertex="1" parent="pIEZG5tYGIGVXU5daji7-1">
          <mxGeometry y="26" width="299" height="26" as="geometry" />
        </mxCell>
        <mxCell id="pIEZG5tYGIGVXU5daji7-5" value="" style="line;html=1;strokeWidth=1;align=left;verticalAlign=middle;spacingTop=-1;spacingLeft=3;spacingRight=3;rotatable=0;labelPosition=right;points=[];portConstraint=eastwest;fontSize=15;rounded=1;labelBackgroundColor=none;fillColor=#FAE5C7;strokeColor=#0F8B8D;fontColor=#143642;" vertex="1" parent="pIEZG5tYGIGVXU5daji7-1">
          <mxGeometry y="52" width="299" height="8" as="geometry" />
        </mxCell>
        <mxCell id="pIEZG5tYGIGVXU5daji7-63" value="+ create(): SystemConfigurationView" style="text;align=left;verticalAlign=top;spacingLeft=4;spacingRight=4;overflow=hidden;rotatable=0;points=[[0,0.5],[1,0.5]];portConstraint=eastwest;fontSize=15;rounded=1;labelBackgroundColor=none;fontColor=#143642;" vertex="1" parent="pIEZG5tYGIGVXU5daji7-1">
          <mxGeometry y="60" width="299" height="26" as="geometry" />
        </mxCell>
        <mxCell id="pIEZG5tYGIGVXU5daji7-62" value="+ modifyButton()" style="text;align=left;verticalAlign=top;spacingLeft=4;spacingRight=4;overflow=hidden;rotatable=0;points=[[0,0.5],[1,0.5]];portConstraint=eastwest;fontSize=15;rounded=1;labelBackgroundColor=none;fontColor=#143642;" vertex="1" parent="pIEZG5tYGIGVXU5daji7-1">
          <mxGeometry y="86" width="299" height="26" as="geometry" />
        </mxCell>
        <mxCell id="pIEZG5tYGIGVXU5daji7-64" value="&amp;nbsp;+ updateView()" style="text;whiteSpace=wrap;html=1;fontSize=15;rounded=1;labelBackgroundColor=none;fontColor=#143642;" vertex="1" parent="pIEZG5tYGIGVXU5daji7-1">
          <mxGeometry y="112" width="299" height="28" as="geometry" />
        </mxCell>
        <mxCell id="QAXXlWp3yUN4CBYijsJT-14" value="+ saveButton()" style="text;align=left;verticalAlign=top;spacingLeft=4;spacingRight=4;overflow=hidden;rotatable=0;points=[[0,0.5],[1,0.5]];portConstraint=eastwest;fontSize=15;rounded=1;labelBackgroundColor=none;fontColor=#143642;" vertex="1" parent="pIEZG5tYGIGVXU5daji7-1">
          <mxGeometry y="140" width="299" height="23" as="geometry" />
        </mxCell>
        <mxCell id="pIEZG5tYGIGVXU5daji7-13" value="" style="endArrow=block;endSize=15;endFill=0;shadow=0;strokeWidth=1;rounded=1;edgeStyle=elbowEdgeStyle;elbow=vertical;exitX=0.5;exitY=0;exitDx=0;exitDy=0;fontSize=15;labelBackgroundColor=none;strokeColor=#A8201A;fontColor=default;" edge="1" parent="1" source="pIEZG5tYGIGVXU5daji7-37" target="pIEZG5tYGIGVXU5daji7-1">
          <mxGeometry width="160" relative="1" as="geometry">
            <mxPoint x="200" y="360" as="sourcePoint" />
            <mxPoint x="200" y="203" as="targetPoint" />
          </mxGeometry>
        </mxCell>
        <mxCell id="pIEZG5tYGIGVXU5daji7-18" value="SystemConfigurationController" style="swimlane;fontStyle=1;align=center;verticalAlign=top;childLayout=stackLayout;horizontal=1;startSize=26;horizontalStack=0;resizeParent=1;resizeLast=0;collapsible=1;marginBottom=0;rounded=1;shadow=0;strokeWidth=1;fontSize=15;fillColor=#FAE5C7;strokeColor=#0F8B8D;labelBackgroundColor=none;fontColor=#143642;" vertex="1" parent="1">
          <mxGeometry x="482" y="33" width="397" height="201" as="geometry">
            <mxRectangle x="550" y="140" width="160" height="26" as="alternateBounds" />
          </mxGeometry>
        </mxCell>
        <mxCell id="pIEZG5tYGIGVXU5daji7-26" value="-systemConfigurationModel: SystemConfigurationModel" style="text;align=left;verticalAlign=top;spacingLeft=4;spacingRight=4;overflow=hidden;rotatable=0;points=[[0,0.5],[1,0.5]];portConstraint=eastwest;fontSize=15;rounded=1;labelBackgroundColor=none;fontColor=#143642;" vertex="1" parent="pIEZG5tYGIGVXU5daji7-18">
          <mxGeometry y="26" width="397" height="26" as="geometry" />
        </mxCell>
        <mxCell id="pIEZG5tYGIGVXU5daji7-24" value="" style="line;html=1;strokeWidth=1;align=left;verticalAlign=middle;spacingTop=-1;spacingLeft=3;spacingRight=3;rotatable=0;labelPosition=right;points=[];portConstraint=eastwest;fontSize=15;rounded=1;labelBackgroundColor=none;fillColor=#FAE5C7;strokeColor=#0F8B8D;fontColor=#143642;" vertex="1" parent="pIEZG5tYGIGVXU5daji7-18">
          <mxGeometry y="52" width="397" height="8" as="geometry" />
        </mxCell>
        <mxCell id="LiXcRCuIeamaUfIKems3-37" value="+ create(): SystemConfigurationController" style="text;align=left;verticalAlign=top;spacingLeft=4;spacingRight=4;overflow=hidden;rotatable=0;points=[[0,0.5],[1,0.5]];portConstraint=eastwest;fontSize=15;rounded=1;labelBackgroundColor=none;fontColor=#143642;" vertex="1" parent="pIEZG5tYGIGVXU5daji7-18">
          <mxGeometry y="60" width="397" height="26" as="geometry" />
        </mxCell>
        <mxCell id="LiXcRCuIeamaUfIKems3-34" value="+ getInfoSystemConfiguration()" style="text;align=left;verticalAlign=top;spacingLeft=4;spacingRight=4;overflow=hidden;rotatable=0;points=[[0,0.5],[1,0.5]];portConstraint=eastwest;fontSize=15;rounded=1;labelBackgroundColor=none;fontColor=#143642;" vertex="1" parent="pIEZG5tYGIGVXU5daji7-18">
          <mxGeometry y="86" width="397" height="26" as="geometry" />
        </mxCell>
        <mxCell id="QAXXlWp3yUN4CBYijsJT-13" value="&amp;nbsp;+ saveChanges()" style="text;whiteSpace=wrap;html=1;fontSize=15;rounded=1;labelBackgroundColor=none;fontColor=#143642;" vertex="1" parent="pIEZG5tYGIGVXU5daji7-18">
          <mxGeometry y="112" width="397" height="30" as="geometry" />
        </mxCell>
        <mxCell id="pIEZG5tYGIGVXU5daji7-37" value="ModifyView" style="swimlane;fontStyle=1;align=center;verticalAlign=top;childLayout=stackLayout;horizontal=1;startSize=26;horizontalStack=0;resizeParent=1;resizeLast=0;collapsible=1;marginBottom=0;rounded=1;shadow=0;strokeWidth=1;fontSize=15;fillColor=#FAE5C7;strokeColor=#0F8B8D;labelBackgroundColor=none;fontColor=#143642;" vertex="1" parent="1">
          <mxGeometry x="-139.25" y="360" width="262.5" height="170" as="geometry">
            <mxRectangle x="230" y="140" width="160" height="26" as="alternateBounds" />
          </mxGeometry>
        </mxCell>
        <mxCell id="pIEZG5tYGIGVXU5daji7-38" value="model: SystemConfigurationModel" style="text;align=left;verticalAlign=top;spacingLeft=4;spacingRight=4;overflow=hidden;rotatable=0;points=[[0,0.5],[1,0.5]];portConstraint=eastwest;fontSize=15;rounded=1;labelBackgroundColor=none;fontColor=#143642;" vertex="1" parent="pIEZG5tYGIGVXU5daji7-37">
          <mxGeometry y="26" width="262.5" height="26" as="geometry" />
        </mxCell>
        <mxCell id="pIEZG5tYGIGVXU5daji7-41" value="" style="line;html=1;strokeWidth=1;align=left;verticalAlign=middle;spacingTop=-1;spacingLeft=3;spacingRight=3;rotatable=0;labelPosition=right;points=[];portConstraint=eastwest;fontSize=15;rounded=1;labelBackgroundColor=none;fillColor=#FAE5C7;strokeColor=#0F8B8D;fontColor=#143642;" vertex="1" parent="pIEZG5tYGIGVXU5daji7-37">
          <mxGeometry y="52" width="262.5" height="8" as="geometry" />
        </mxCell>
        <mxCell id="pIEZG5tYGIGVXU5daji7-42" value="+ create(): ModifySystemConfigurationView" style="text;align=left;verticalAlign=top;spacingLeft=4;spacingRight=4;overflow=hidden;rotatable=0;points=[[0,0.5],[1,0.5]];portConstraint=eastwest;fontSize=15;rounded=1;labelBackgroundColor=none;fontColor=#143642;" vertex="1" parent="pIEZG5tYGIGVXU5daji7-37">
          <mxGeometry y="60" width="262.5" height="26" as="geometry" />
        </mxCell>
        <mxCell id="pIEZG5tYGIGVXU5daji7-61" value="+ updateState()" style="text;align=left;verticalAlign=top;spacingLeft=4;spacingRight=4;overflow=hidden;rotatable=0;points=[[0,0.5],[1,0.5]];portConstraint=eastwest;fontSize=15;rounded=1;labelBackgroundColor=none;fontColor=#143642;" vertex="1" parent="pIEZG5tYGIGVXU5daji7-37">
          <mxGeometry y="86" width="262.5" height="26" as="geometry" />
        </mxCell>
        <mxCell id="pIEZG5tYGIGVXU5daji7-51" value="SystemConfigurationModel" style="swimlane;fontStyle=1;align=center;verticalAlign=top;childLayout=stackLayout;horizontal=1;startSize=26;horizontalStack=0;resizeParent=1;resizeLast=0;collapsible=1;marginBottom=0;rounded=1;shadow=0;strokeWidth=1;fontSize=15;fillColor=#FAE5C7;strokeColor=#0F8B8D;labelBackgroundColor=none;fontColor=#143642;" vertex="1" parent="1">
          <mxGeometry x="504" y="350" width="353" height="312" as="geometry">
            <mxRectangle x="550" y="140" width="160" height="26" as="alternateBounds" />
          </mxGeometry>
        </mxCell>
        <mxCell id="pIEZG5tYGIGVXU5daji7-52" value="- views: Collection &lt;SystemConfigurationView&gt;" style="text;align=left;verticalAlign=top;spacingLeft=4;spacingRight=4;overflow=hidden;rotatable=0;points=[[0,0.5],[1,0.5]];portConstraint=eastwest;fontSize=15;rounded=1;labelBackgroundColor=none;fontColor=#143642;" vertex="1" parent="pIEZG5tYGIGVXU5daji7-51">
          <mxGeometry y="26" width="353" height="26" as="geometry" />
        </mxCell>
        <mxCell id="pIEZG5tYGIGVXU5daji7-57" value="" style="line;html=1;strokeWidth=1;align=left;verticalAlign=middle;spacingTop=-1;spacingLeft=3;spacingRight=3;rotatable=0;labelPosition=right;points=[];portConstraint=eastwest;fontSize=15;rounded=1;labelBackgroundColor=none;fillColor=#FAE5C7;strokeColor=#0F8B8D;fontColor=#143642;" vertex="1" parent="pIEZG5tYGIGVXU5daji7-51">
          <mxGeometry y="52" width="353" height="8" as="geometry" />
        </mxCell>
        <mxCell id="LiXcRCuIeamaUfIKems3-35" value="+ create(): InforSystemConfigurationView" style="text;align=left;verticalAlign=top;spacingLeft=4;spacingRight=4;overflow=hidden;rotatable=0;points=[[0,0.5],[1,0.5]];portConstraint=eastwest;fontSize=15;rounded=1;labelBackgroundColor=none;fontColor=#143642;" vertex="1" parent="pIEZG5tYGIGVXU5daji7-51">
          <mxGeometry y="60" width="353" height="26" as="geometry" />
        </mxCell>
        <mxCell id="QAXXlWp3yUN4CBYijsJT-7" value="&amp;nbsp;+ updateState()" style="text;whiteSpace=wrap;html=1;fontSize=15;rounded=1;labelBackgroundColor=none;fontColor=#143642;" vertex="1" parent="pIEZG5tYGIGVXU5daji7-51">
          <mxGeometry y="86" width="353" height="30" as="geometry" />
        </mxCell>
        <mxCell id="QAXXlWp3yUN4CBYijsJT-11" value="+ checkValidInput()&#xa;" style="text;align=left;verticalAlign=top;spacingLeft=4;spacingRight=4;overflow=hidden;rotatable=0;points=[[0,0.5],[1,0.5]];portConstraint=eastwest;fontSize=15;rounded=1;labelBackgroundColor=none;fontColor=#143642;" vertex="1" parent="pIEZG5tYGIGVXU5daji7-51">
          <mxGeometry y="116" width="353" height="26" as="geometry" />
        </mxCell>
        <mxCell id="QAXXlWp3yUN4CBYijsJT-12" value="+ updateDefaultPrintingPages()" style="text;align=left;verticalAlign=top;spacingLeft=4;spacingRight=4;overflow=hidden;rotatable=0;points=[[0,0.5],[1,0.5]];portConstraint=eastwest;fontSize=15;rounded=1;labelBackgroundColor=none;fontColor=#143642;" vertex="1" parent="pIEZG5tYGIGVXU5daji7-51">
          <mxGeometry y="142" width="353" height="26" as="geometry" />
        </mxCell>
        <mxCell id="QAXXlWp3yUN4CBYijsJT-5" value="+ updateDate()" style="text;align=left;verticalAlign=top;spacingLeft=4;spacingRight=4;overflow=hidden;rotatable=0;points=[[0,0.5],[1,0.5]];portConstraint=eastwest;fontSize=15;rounded=1;labelBackgroundColor=none;fontColor=#143642;" vertex="1" parent="pIEZG5tYGIGVXU5daji7-51">
          <mxGeometry y="168" width="353" height="26" as="geometry" />
        </mxCell>
        <mxCell id="QAXXlWp3yUN4CBYijsJT-1" value="+ updatePermittedFileTypes()" style="text;align=left;verticalAlign=top;spacingLeft=4;spacingRight=4;overflow=hidden;rotatable=0;points=[[0,0.5],[1,0.5]];portConstraint=eastwest;fontSize=15;rounded=1;labelBackgroundColor=none;fontColor=#143642;" vertex="1" parent="pIEZG5tYGIGVXU5daji7-51">
          <mxGeometry y="194" width="353" height="26" as="geometry" />
        </mxCell>
        <mxCell id="QAXXlWp3yUN4CBYijsJT-15" value="+ getDate()" style="text;align=left;verticalAlign=top;spacingLeft=4;spacingRight=4;overflow=hidden;rotatable=0;points=[[0,0.5],[1,0.5]];portConstraint=eastwest;fontSize=15;rounded=1;labelBackgroundColor=none;fontColor=#143642;" vertex="1" parent="pIEZG5tYGIGVXU5daji7-51">
          <mxGeometry y="220" width="353" height="26" as="geometry" />
        </mxCell>
        <mxCell id="QAXXlWp3yUN4CBYijsJT-16" value="+ getDefaultPrintingPages()" style="text;align=left;verticalAlign=top;spacingLeft=4;spacingRight=4;overflow=hidden;rotatable=0;points=[[0,0.5],[1,0.5]];portConstraint=eastwest;fontSize=15;rounded=1;labelBackgroundColor=none;fontColor=#143642;" vertex="1" parent="pIEZG5tYGIGVXU5daji7-51">
          <mxGeometry y="246" width="353" height="26" as="geometry" />
        </mxCell>
        <mxCell id="QAXXlWp3yUN4CBYijsJT-17" value="+ getListPermittedFileTypes()" style="text;align=left;verticalAlign=top;spacingLeft=4;spacingRight=4;overflow=hidden;rotatable=0;points=[[0,0.5],[1,0.5]];portConstraint=eastwest;fontSize=15;rounded=1;labelBackgroundColor=none;fontColor=#143642;" vertex="1" parent="pIEZG5tYGIGVXU5daji7-51">
          <mxGeometry y="272" width="353" height="26" as="geometry" />
        </mxCell>
        <mxCell id="pIEZG5tYGIGVXU5daji7-81" value="Date" style="swimlane;fontStyle=1;align=center;verticalAlign=top;childLayout=stackLayout;horizontal=1;startSize=26;horizontalStack=0;resizeParent=1;resizeLast=0;collapsible=1;marginBottom=0;rounded=1;shadow=0;strokeWidth=1;fontSize=15;fillColor=#FAE5C7;strokeColor=#0F8B8D;labelBackgroundColor=none;fontColor=#143642;" vertex="1" parent="1">
          <mxGeometry x="-440" y="980" width="253" height="130" as="geometry">
            <mxRectangle x="550" y="140" width="160" height="26" as="alternateBounds" />
          </mxGeometry>
        </mxCell>
        <mxCell id="pIEZG5tYGIGVXU5daji7-83" value="" style="line;html=1;strokeWidth=1;align=left;verticalAlign=middle;spacingTop=-1;spacingLeft=3;spacingRight=3;rotatable=0;labelPosition=right;points=[];portConstraint=eastwest;fontSize=15;rounded=1;labelBackgroundColor=none;fillColor=#FAE5C7;strokeColor=#0F8B8D;fontColor=#143642;" vertex="1" parent="pIEZG5tYGIGVXU5daji7-81">
          <mxGeometry y="26" width="253" height="58" as="geometry" />
        </mxCell>
        <mxCell id="LiXcRCuIeamaUfIKems3-24" value=" + addDefaultPrintDate(date: Date)" style="text;align=left;verticalAlign=top;spacingLeft=4;spacingRight=4;overflow=hidden;rotatable=0;points=[[0,0.5],[1,0.5]];portConstraint=eastwest;fontSize=15;rounded=1;labelBackgroundColor=none;fontColor=#143642;" vertex="1" parent="pIEZG5tYGIGVXU5daji7-81">
          <mxGeometry y="84" width="253" height="28" as="geometry" />
        </mxCell>
        <mxCell id="pIEZG5tYGIGVXU5daji7-86" value="Permitted filel types" style="swimlane;fontStyle=1;align=center;verticalAlign=top;childLayout=stackLayout;horizontal=1;startSize=26;horizontalStack=0;resizeParent=1;resizeLast=0;collapsible=1;marginBottom=0;rounded=1;shadow=0;strokeWidth=1;fontSize=15;fillColor=#FAE5C7;strokeColor=#0F8B8D;labelBackgroundColor=none;fontColor=#143642;" vertex="1" parent="1">
          <mxGeometry x="-154.44" y="980" width="299.62" height="130" as="geometry">
            <mxRectangle x="550" y="140" width="160" height="26" as="alternateBounds" />
          </mxGeometry>
        </mxCell>
        <mxCell id="pIEZG5tYGIGVXU5daji7-87" value="- " style="text;align=left;verticalAlign=top;spacingLeft=4;spacingRight=4;overflow=hidden;rotatable=0;points=[[0,0.5],[1,0.5]];portConstraint=eastwest;fontSize=15;rounded=1;labelBackgroundColor=none;fontColor=#143642;" vertex="1" parent="pIEZG5tYGIGVXU5daji7-86">
          <mxGeometry y="26" width="299.62" height="26" as="geometry" />
        </mxCell>
        <mxCell id="pIEZG5tYGIGVXU5daji7-88" value="" style="line;html=1;strokeWidth=1;align=left;verticalAlign=middle;spacingTop=-1;spacingLeft=3;spacingRight=3;rotatable=0;labelPosition=right;points=[];portConstraint=eastwest;fontSize=15;rounded=1;labelBackgroundColor=none;fillColor=#FAE5C7;strokeColor=#0F8B8D;fontColor=#143642;" vertex="1" parent="pIEZG5tYGIGVXU5daji7-86">
          <mxGeometry y="52" width="299.62" height="8" as="geometry" />
        </mxCell>
        <mxCell id="LiXcRCuIeamaUfIKems3-22" value="+ addPermittedFileType(fileType: String)" style="text;align=left;verticalAlign=top;spacingLeft=4;spacingRight=4;overflow=hidden;rotatable=0;points=[[0,0.5],[1,0.5]];portConstraint=eastwest;fontSize=15;rounded=1;labelBackgroundColor=none;fontColor=#143642;" vertex="1" parent="pIEZG5tYGIGVXU5daji7-86">
          <mxGeometry y="60" width="299.62" height="28" as="geometry" />
        </mxCell>
        <mxCell id="LiXcRCuIeamaUfIKems3-23" value="+ removePermittedFileType(fileType: String)" style="text;align=left;verticalAlign=top;spacingLeft=4;spacingRight=4;overflow=hidden;rotatable=0;points=[[0,0.5],[1,0.5]];portConstraint=eastwest;fontSize=15;rounded=1;labelBackgroundColor=none;fontColor=#143642;" vertex="1" parent="pIEZG5tYGIGVXU5daji7-86">
          <mxGeometry y="88" width="299.62" height="26" as="geometry" />
        </mxCell>
        <mxCell id="pIEZG5tYGIGVXU5daji7-91" value="Number of pages" style="swimlane;fontStyle=1;align=center;verticalAlign=top;childLayout=stackLayout;horizontal=1;startSize=26;horizontalStack=0;resizeParent=1;resizeLast=0;collapsible=1;marginBottom=0;rounded=1;shadow=0;strokeWidth=1;fontSize=15;fillColor=#FAE5C7;strokeColor=#0F8B8D;labelBackgroundColor=none;fontColor=#143642;" vertex="1" parent="1">
          <mxGeometry x="157" y="980" width="283" height="130" as="geometry">
            <mxRectangle x="550" y="140" width="160" height="26" as="alternateBounds" />
          </mxGeometry>
        </mxCell>
        <mxCell id="pIEZG5tYGIGVXU5daji7-92" value="- " style="text;align=left;verticalAlign=top;spacingLeft=4;spacingRight=4;overflow=hidden;rotatable=0;points=[[0,0.5],[1,0.5]];portConstraint=eastwest;fontSize=15;rounded=1;labelBackgroundColor=none;fontColor=#143642;" vertex="1" parent="pIEZG5tYGIGVXU5daji7-91">
          <mxGeometry y="26" width="283" height="26" as="geometry" />
        </mxCell>
        <mxCell id="pIEZG5tYGIGVXU5daji7-93" value="" style="line;html=1;strokeWidth=1;align=left;verticalAlign=middle;spacingTop=-1;spacingLeft=3;spacingRight=3;rotatable=0;labelPosition=right;points=[];portConstraint=eastwest;fontSize=15;rounded=1;labelBackgroundColor=none;fillColor=#FAE5C7;strokeColor=#0F8B8D;fontColor=#143642;" vertex="1" parent="pIEZG5tYGIGVXU5daji7-91">
          <mxGeometry y="52" width="283" height="8" as="geometry" />
        </mxCell>
        <mxCell id="LiXcRCuIeamaUfIKems3-21" value="+ setDefaultNumberOfPages(pages: int)" style="text;align=left;verticalAlign=top;spacingLeft=4;spacingRight=4;overflow=hidden;rotatable=0;points=[[0,0.5],[1,0.5]];portConstraint=eastwest;fontSize=15;rounded=1;labelBackgroundColor=none;fontColor=#143642;" vertex="1" parent="pIEZG5tYGIGVXU5daji7-91">
          <mxGeometry y="60" width="283" height="26" as="geometry" />
        </mxCell>
        <mxCell id="LiXcRCuIeamaUfIKems3-1" value="" style="endArrow=block;endSize=15;endFill=0;shadow=0;strokeWidth=1;rounded=1;edgeStyle=elbowEdgeStyle;elbow=vertical;entryX=0.5;entryY=1;entryDx=0;entryDy=0;exitX=0.5;exitY=0;exitDx=0;exitDy=0;fontSize=15;labelBackgroundColor=none;strokeColor=#A8201A;fontColor=default;" edge="1" parent="1" source="pIEZG5tYGIGVXU5daji7-86" target="LiXcRCuIeamaUfIKems3-14">
          <mxGeometry width="160" relative="1" as="geometry">
            <mxPoint x="-33" y="950" as="sourcePoint" />
            <mxPoint x="-33.25" y="849.9999999999998" as="targetPoint" />
          </mxGeometry>
        </mxCell>
        <mxCell id="LiXcRCuIeamaUfIKems3-2" value="" style="endArrow=none;html=1;rounded=1;exitX=0.5;exitY=0;exitDx=0;exitDy=0;fontSize=15;labelBackgroundColor=none;strokeColor=#A8201A;fontColor=default;" edge="1" parent="1" source="pIEZG5tYGIGVXU5daji7-81">
          <mxGeometry width="50" height="50" relative="1" as="geometry">
            <mxPoint x="-373" y="970" as="sourcePoint" />
            <mxPoint x="-33" y="920" as="targetPoint" />
            <Array as="points">
              <mxPoint x="-313" y="920" />
            </Array>
          </mxGeometry>
        </mxCell>
        <mxCell id="LiXcRCuIeamaUfIKems3-3" value="" style="endArrow=none;html=1;rounded=1;fontSize=15;exitX=0.542;exitY=0.018;exitDx=0;exitDy=0;exitPerimeter=0;labelBackgroundColor=none;strokeColor=#A8201A;fontColor=default;" edge="1" parent="1" source="pIEZG5tYGIGVXU5daji7-91">
          <mxGeometry width="50" height="50" relative="1" as="geometry">
            <mxPoint x="300" y="970" as="sourcePoint" />
            <mxPoint x="-33" y="920" as="targetPoint" />
            <Array as="points">
              <mxPoint x="310" y="920" />
            </Array>
          </mxGeometry>
        </mxCell>
        <mxCell id="LiXcRCuIeamaUfIKems3-14" value="Configuration" style="swimlane;fontStyle=1;align=center;verticalAlign=top;childLayout=stackLayout;horizontal=1;startSize=26;horizontalStack=0;resizeParent=1;resizeLast=0;collapsible=1;marginBottom=0;rounded=1;shadow=0;strokeWidth=1;fontSize=15;fillColor=#FAE5C7;strokeColor=#0F8B8D;labelBackgroundColor=none;fontColor=#143642;" vertex="1" parent="1">
          <mxGeometry x="-139.25" y="680" width="269.25" height="180" as="geometry">
            <mxRectangle x="550" y="140" width="160" height="26" as="alternateBounds" />
          </mxGeometry>
        </mxCell>
        <mxCell id="LiXcRCuIeamaUfIKems3-15" value="- defaultNumberOfPages: Int" style="text;align=left;verticalAlign=top;spacingLeft=4;spacingRight=4;overflow=hidden;rotatable=0;points=[[0,0.5],[1,0.5]];portConstraint=eastwest;fontSize=15;rounded=1;labelBackgroundColor=none;fontColor=#143642;" vertex="1" parent="LiXcRCuIeamaUfIKems3-14">
          <mxGeometry y="26" width="269.25" height="26" as="geometry" />
        </mxCell>
        <mxCell id="LiXcRCuIeamaUfIKems3-16" value="- permittedFileTypes: List&lt;String&gt;" style="text;align=left;verticalAlign=top;spacingLeft=4;spacingRight=4;overflow=hidden;rotatable=0;points=[[0,0.5],[1,0.5]];portConstraint=eastwest;fontSize=15;rounded=1;labelBackgroundColor=none;fontColor=#143642;" vertex="1" parent="LiXcRCuIeamaUfIKems3-14">
          <mxGeometry y="52" width="269.25" height="26" as="geometry" />
        </mxCell>
        <mxCell id="LiXcRCuIeamaUfIKems3-17" value="- defaultPrintDates: Date" style="text;align=left;verticalAlign=top;spacingLeft=4;spacingRight=4;overflow=hidden;rotatable=0;points=[[0,0.5],[1,0.5]];portConstraint=eastwest;fontSize=15;rounded=1;labelBackgroundColor=none;fontColor=#143642;" vertex="1" parent="LiXcRCuIeamaUfIKems3-14">
          <mxGeometry y="78" width="269.25" height="21" as="geometry" />
        </mxCell>
        <mxCell id="LiXcRCuIeamaUfIKems3-18" value="" style="line;html=1;strokeWidth=1;align=left;verticalAlign=middle;spacingTop=-1;spacingLeft=3;spacingRight=3;rotatable=0;labelPosition=right;points=[];portConstraint=eastwest;fontSize=15;rounded=1;labelBackgroundColor=none;fillColor=#FAE5C7;strokeColor=#0F8B8D;fontColor=#143642;" vertex="1" parent="LiXcRCuIeamaUfIKems3-14">
          <mxGeometry y="99" width="269.25" height="16" as="geometry" />
        </mxCell>
        <mxCell id="LiXcRCuIeamaUfIKems3-26" value="" style="endArrow=open;endFill=1;endSize=12;html=1;rounded=1;exitX=0;exitY=0.5;exitDx=0;exitDy=0;labelBackgroundColor=none;strokeColor=#A8201A;fontColor=default;entryX=0.5;entryY=0;entryDx=0;entryDy=0;" edge="1" parent="1" source="QAXXlWp3yUN4CBYijsJT-15" target="LiXcRCuIeamaUfIKems3-14">
          <mxGeometry width="160" relative="1" as="geometry">
            <mxPoint x="400" y="590" as="sourcePoint" />
            <mxPoint x="681" y="669" as="targetPoint" />
            <Array as="points">
              <mxPoint x="-5" y="583" />
              <mxPoint x="-5" y="632" />
            </Array>
          </mxGeometry>
        </mxCell>
        <mxCell id="LiXcRCuIeamaUfIKems3-27" value="" style="endArrow=open;endFill=1;endSize=12;html=1;rounded=1;exitX=1;exitY=0.5;exitDx=0;exitDy=0;entryX=0;entryY=0;entryDx=0;entryDy=0;labelBackgroundColor=none;strokeColor=#A8201A;fontColor=default;" edge="1" parent="1" source="pIEZG5tYGIGVXU5daji7-61">
          <mxGeometry width="160" relative="1" as="geometry">
            <mxPoint x="162.5" y="425" as="sourcePoint" />
            <mxPoint x="504" y="462" as="targetPoint" />
            <Array as="points" />
          </mxGeometry>
        </mxCell>
        <mxCell id="LiXcRCuIeamaUfIKems3-28" value="" style="endArrow=open;endFill=1;endSize=12;html=1;rounded=1;exitX=0;exitY=0.5;exitDx=0;exitDy=0;labelBackgroundColor=none;strokeColor=#A8201A;fontColor=default;entryX=1;entryY=1;entryDx=0;entryDy=0;" edge="1" parent="1" source="pIEZG5tYGIGVXU5daji7-52" target="pIEZG5tYGIGVXU5daji7-1">
          <mxGeometry width="160" relative="1" as="geometry">
            <mxPoint x="173" y="461" as="sourcePoint" />
            <mxPoint x="122" y="197" as="targetPoint" />
            <Array as="points" />
          </mxGeometry>
        </mxCell>
        <mxCell id="LiXcRCuIeamaUfIKems3-32" value="" style="endArrow=open;endFill=1;endSize=12;html=1;rounded=1;entryX=0.5;entryY=0;entryDx=0;entryDy=0;labelBackgroundColor=none;strokeColor=#A8201A;fontColor=default;" edge="1" parent="1" target="pIEZG5tYGIGVXU5daji7-51">
          <mxGeometry width="160" relative="1" as="geometry">
            <mxPoint x="681" y="240" as="sourcePoint" />
            <mxPoint x="166" y="202" as="targetPoint" />
            <Array as="points" />
          </mxGeometry>
        </mxCell>
        <mxCell id="QAXXlWp3yUN4CBYijsJT-4" value="" style="endArrow=diamondThin;endFill=0;endSize=24;html=1;rounded=0;entryX=1;entryY=0.5;entryDx=0;entryDy=0;exitX=0;exitY=0.5;exitDx=0;exitDy=0;" edge="1" parent="1" target="pIEZG5tYGIGVXU5daji7-64">
          <mxGeometry width="160" relative="1" as="geometry">
            <mxPoint x="482" y="158.0000000000001" as="sourcePoint" />
            <mxPoint x="472" y="198" as="targetPoint" />
          </mxGeometry>
        </mxCell>
        <mxCell id="r1LKMjyL0y6_kXp-Capa-168" value="SystemConfigurationView" style="swimlane;fontStyle=1;align=center;verticalAlign=top;childLayout=stackLayout;horizontal=1;startSize=26;horizontalStack=0;resizeParent=1;resizeLast=0;collapsible=1;marginBottom=0;rounded=1;shadow=0;strokeWidth=1;fontSize=15;fillColor=#FAE5C7;strokeColor=#0F8B8D;labelBackgroundColor=none;fontColor=#143642;" vertex="1" parent="1">
          <mxGeometry x="1179" y="97" width="299" height="178" as="geometry">
            <mxRectangle x="230" y="140" width="160" height="26" as="alternateBounds" />
          </mxGeometry>
        </mxCell>
        <mxCell id="r1LKMjyL0y6_kXp-Capa-169" value="-controller: SystemConfigurationController" style="text;align=left;verticalAlign=top;spacingLeft=4;spacingRight=4;overflow=hidden;rotatable=0;points=[[0,0.5],[1,0.5]];portConstraint=eastwest;fontSize=15;rounded=1;labelBackgroundColor=none;fontColor=#143642;" vertex="1" parent="r1LKMjyL0y6_kXp-Capa-168">
          <mxGeometry y="26" width="299" height="26" as="geometry" />
        </mxCell>
        <mxCell id="r1LKMjyL0y6_kXp-Capa-170" value="" style="line;html=1;strokeWidth=1;align=left;verticalAlign=middle;spacingTop=-1;spacingLeft=3;spacingRight=3;rotatable=0;labelPosition=right;points=[];portConstraint=eastwest;fontSize=15;rounded=1;labelBackgroundColor=none;fillColor=#FAE5C7;strokeColor=#0F8B8D;fontColor=#143642;" vertex="1" parent="r1LKMjyL0y6_kXp-Capa-168">
          <mxGeometry y="52" width="299" height="8" as="geometry" />
        </mxCell>
        <mxCell id="r1LKMjyL0y6_kXp-Capa-171" value="+ create(): SystemConfigurationView" style="text;align=left;verticalAlign=top;spacingLeft=4;spacingRight=4;overflow=hidden;rotatable=0;points=[[0,0.5],[1,0.5]];portConstraint=eastwest;fontSize=15;rounded=1;labelBackgroundColor=none;fontColor=#143642;" vertex="1" parent="r1LKMjyL0y6_kXp-Capa-168">
          <mxGeometry y="60" width="299" height="26" as="geometry" />
        </mxCell>
        <mxCell id="r1LKMjyL0y6_kXp-Capa-172" value="+ modifyButton()" style="text;align=left;verticalAlign=top;spacingLeft=4;spacingRight=4;overflow=hidden;rotatable=0;points=[[0,0.5],[1,0.5]];portConstraint=eastwest;fontSize=15;rounded=1;labelBackgroundColor=none;fontColor=#143642;" vertex="1" parent="r1LKMjyL0y6_kXp-Capa-168">
          <mxGeometry y="86" width="299" height="26" as="geometry" />
        </mxCell>
        <mxCell id="r1LKMjyL0y6_kXp-Capa-173" value="&amp;nbsp;+ updateView()" style="text;whiteSpace=wrap;html=1;fontSize=15;rounded=1;labelBackgroundColor=none;fontColor=#143642;" vertex="1" parent="r1LKMjyL0y6_kXp-Capa-168">
          <mxGeometry y="112" width="299" height="28" as="geometry" />
        </mxCell>
        <mxCell id="r1LKMjyL0y6_kXp-Capa-174" value="+ saveButton()" style="text;align=left;verticalAlign=top;spacingLeft=4;spacingRight=4;overflow=hidden;rotatable=0;points=[[0,0.5],[1,0.5]];portConstraint=eastwest;fontSize=15;rounded=1;labelBackgroundColor=none;fontColor=#143642;" vertex="1" parent="r1LKMjyL0y6_kXp-Capa-168">
          <mxGeometry y="140" width="299" height="23" as="geometry" />
        </mxCell>
        <mxCell id="r1LKMjyL0y6_kXp-Capa-175" value="" style="endArrow=block;endSize=15;endFill=0;shadow=0;strokeWidth=1;rounded=1;edgeStyle=elbowEdgeStyle;elbow=vertical;exitX=0.5;exitY=0;exitDx=0;exitDy=0;fontSize=15;labelBackgroundColor=none;strokeColor=#A8201A;fontColor=default;" edge="1" parent="1" source="r1LKMjyL0y6_kXp-Capa-182" target="r1LKMjyL0y6_kXp-Capa-168">
          <mxGeometry width="160" relative="1" as="geometry">
            <mxPoint x="1536.5" y="441" as="sourcePoint" />
            <mxPoint x="1536.5" y="284" as="targetPoint" />
          </mxGeometry>
        </mxCell>
        <mxCell id="r1LKMjyL0y6_kXp-Capa-176" value="SystemConfigurationController" style="swimlane;fontStyle=1;align=center;verticalAlign=top;childLayout=stackLayout;horizontal=1;startSize=26;horizontalStack=0;resizeParent=1;resizeLast=0;collapsible=1;marginBottom=0;rounded=1;shadow=0;strokeWidth=1;fontSize=15;fillColor=#FAE5C7;strokeColor=#0F8B8D;labelBackgroundColor=none;fontColor=#143642;" vertex="1" parent="1">
          <mxGeometry x="1818.5" y="97" width="397" height="201" as="geometry">
            <mxRectangle x="550" y="140" width="160" height="26" as="alternateBounds" />
          </mxGeometry>
        </mxCell>
        <mxCell id="r1LKMjyL0y6_kXp-Capa-177" value="-systemConfigurationModel: SystemConfigurationModel" style="text;align=left;verticalAlign=top;spacingLeft=4;spacingRight=4;overflow=hidden;rotatable=0;points=[[0,0.5],[1,0.5]];portConstraint=eastwest;fontSize=15;rounded=1;labelBackgroundColor=none;fontColor=#143642;" vertex="1" parent="r1LKMjyL0y6_kXp-Capa-176">
          <mxGeometry y="26" width="397" height="26" as="geometry" />
        </mxCell>
        <mxCell id="r1LKMjyL0y6_kXp-Capa-178" value="" style="line;html=1;strokeWidth=1;align=left;verticalAlign=middle;spacingTop=-1;spacingLeft=3;spacingRight=3;rotatable=0;labelPosition=right;points=[];portConstraint=eastwest;fontSize=15;rounded=1;labelBackgroundColor=none;fillColor=#FAE5C7;strokeColor=#0F8B8D;fontColor=#143642;" vertex="1" parent="r1LKMjyL0y6_kXp-Capa-176">
          <mxGeometry y="52" width="397" height="8" as="geometry" />
        </mxCell>
        <mxCell id="r1LKMjyL0y6_kXp-Capa-179" value="+ create(): SystemConfigurationController" style="text;align=left;verticalAlign=top;spacingLeft=4;spacingRight=4;overflow=hidden;rotatable=0;points=[[0,0.5],[1,0.5]];portConstraint=eastwest;fontSize=15;rounded=1;labelBackgroundColor=none;fontColor=#143642;" vertex="1" parent="r1LKMjyL0y6_kXp-Capa-176">
          <mxGeometry y="60" width="397" height="26" as="geometry" />
        </mxCell>
        <mxCell id="r1LKMjyL0y6_kXp-Capa-180" value="+ getInfoSystemConfiguration()" style="text;align=left;verticalAlign=top;spacingLeft=4;spacingRight=4;overflow=hidden;rotatable=0;points=[[0,0.5],[1,0.5]];portConstraint=eastwest;fontSize=15;rounded=1;labelBackgroundColor=none;fontColor=#143642;" vertex="1" parent="r1LKMjyL0y6_kXp-Capa-176">
          <mxGeometry y="86" width="397" height="26" as="geometry" />
        </mxCell>
        <mxCell id="r1LKMjyL0y6_kXp-Capa-181" value="&amp;nbsp;+ saveChanges()" style="text;whiteSpace=wrap;html=1;fontSize=15;rounded=1;labelBackgroundColor=none;fontColor=#143642;" vertex="1" parent="r1LKMjyL0y6_kXp-Capa-176">
          <mxGeometry y="112" width="397" height="30" as="geometry" />
        </mxCell>
        <mxCell id="r1LKMjyL0y6_kXp-Capa-182" value="ModifyView" style="swimlane;fontStyle=1;align=center;verticalAlign=top;childLayout=stackLayout;horizontal=1;startSize=26;horizontalStack=0;resizeParent=1;resizeLast=0;collapsible=1;marginBottom=0;rounded=1;shadow=0;strokeWidth=1;fontSize=15;fillColor=#FAE5C7;strokeColor=#0F8B8D;labelBackgroundColor=none;fontColor=#143642;" vertex="1" parent="1">
          <mxGeometry x="1197.25" y="441" width="262.5" height="170" as="geometry">
            <mxRectangle x="230" y="140" width="160" height="26" as="alternateBounds" />
          </mxGeometry>
        </mxCell>
        <mxCell id="r1LKMjyL0y6_kXp-Capa-183" value="model: SystemConfigurationModel" style="text;align=left;verticalAlign=top;spacingLeft=4;spacingRight=4;overflow=hidden;rotatable=0;points=[[0,0.5],[1,0.5]];portConstraint=eastwest;fontSize=15;rounded=1;labelBackgroundColor=none;fontColor=#143642;" vertex="1" parent="r1LKMjyL0y6_kXp-Capa-182">
          <mxGeometry y="26" width="262.5" height="26" as="geometry" />
        </mxCell>
        <mxCell id="r1LKMjyL0y6_kXp-Capa-184" value="" style="line;html=1;strokeWidth=1;align=left;verticalAlign=middle;spacingTop=-1;spacingLeft=3;spacingRight=3;rotatable=0;labelPosition=right;points=[];portConstraint=eastwest;fontSize=15;rounded=1;labelBackgroundColor=none;fillColor=#FAE5C7;strokeColor=#0F8B8D;fontColor=#143642;" vertex="1" parent="r1LKMjyL0y6_kXp-Capa-182">
          <mxGeometry y="52" width="262.5" height="8" as="geometry" />
        </mxCell>
        <mxCell id="r1LKMjyL0y6_kXp-Capa-185" value="+ create(): ModifySystemConfigurationView" style="text;align=left;verticalAlign=top;spacingLeft=4;spacingRight=4;overflow=hidden;rotatable=0;points=[[0,0.5],[1,0.5]];portConstraint=eastwest;fontSize=15;rounded=1;labelBackgroundColor=none;fontColor=#143642;" vertex="1" parent="r1LKMjyL0y6_kXp-Capa-182">
          <mxGeometry y="60" width="262.5" height="26" as="geometry" />
        </mxCell>
        <mxCell id="r1LKMjyL0y6_kXp-Capa-186" value="+ updateState()" style="text;align=left;verticalAlign=top;spacingLeft=4;spacingRight=4;overflow=hidden;rotatable=0;points=[[0,0.5],[1,0.5]];portConstraint=eastwest;fontSize=15;rounded=1;labelBackgroundColor=none;fontColor=#143642;" vertex="1" parent="r1LKMjyL0y6_kXp-Capa-182">
          <mxGeometry y="86" width="262.5" height="26" as="geometry" />
        </mxCell>
        <mxCell id="r1LKMjyL0y6_kXp-Capa-187" value="SystemConfigurationModel" style="swimlane;fontStyle=1;align=center;verticalAlign=top;childLayout=stackLayout;horizontal=1;startSize=26;horizontalStack=0;resizeParent=1;resizeLast=0;collapsible=1;marginBottom=0;rounded=1;shadow=0;strokeWidth=1;fontSize=15;fillColor=#FAE5C7;strokeColor=#0F8B8D;labelBackgroundColor=none;fontColor=#143642;" vertex="1" parent="1">
          <mxGeometry x="1840.5" y="431" width="353" height="312" as="geometry">
            <mxRectangle x="550" y="140" width="160" height="26" as="alternateBounds" />
          </mxGeometry>
        </mxCell>
        <mxCell id="r1LKMjyL0y6_kXp-Capa-188" value="- views: Collection &lt;SystemConfigurationView&gt;" style="text;align=left;verticalAlign=top;spacingLeft=4;spacingRight=4;overflow=hidden;rotatable=0;points=[[0,0.5],[1,0.5]];portConstraint=eastwest;fontSize=15;rounded=1;labelBackgroundColor=none;fontColor=#143642;" vertex="1" parent="r1LKMjyL0y6_kXp-Capa-187">
          <mxGeometry y="26" width="353" height="26" as="geometry" />
        </mxCell>
        <mxCell id="r1LKMjyL0y6_kXp-Capa-189" value="" style="line;html=1;strokeWidth=1;align=left;verticalAlign=middle;spacingTop=-1;spacingLeft=3;spacingRight=3;rotatable=0;labelPosition=right;points=[];portConstraint=eastwest;fontSize=15;rounded=1;labelBackgroundColor=none;fillColor=#FAE5C7;strokeColor=#0F8B8D;fontColor=#143642;" vertex="1" parent="r1LKMjyL0y6_kXp-Capa-187">
          <mxGeometry y="52" width="353" height="8" as="geometry" />
        </mxCell>
        <mxCell id="r1LKMjyL0y6_kXp-Capa-190" value="+ create(): InforSystemConfigurationView" style="text;align=left;verticalAlign=top;spacingLeft=4;spacingRight=4;overflow=hidden;rotatable=0;points=[[0,0.5],[1,0.5]];portConstraint=eastwest;fontSize=15;rounded=1;labelBackgroundColor=none;fontColor=#143642;" vertex="1" parent="r1LKMjyL0y6_kXp-Capa-187">
          <mxGeometry y="60" width="353" height="26" as="geometry" />
        </mxCell>
        <mxCell id="r1LKMjyL0y6_kXp-Capa-191" value="&amp;nbsp;+ updateState()" style="text;whiteSpace=wrap;html=1;fontSize=15;rounded=1;labelBackgroundColor=none;fontColor=#143642;" vertex="1" parent="r1LKMjyL0y6_kXp-Capa-187">
          <mxGeometry y="86" width="353" height="30" as="geometry" />
        </mxCell>
        <mxCell id="r1LKMjyL0y6_kXp-Capa-192" value="+ checkValidInput()&#xa;" style="text;align=left;verticalAlign=top;spacingLeft=4;spacingRight=4;overflow=hidden;rotatable=0;points=[[0,0.5],[1,0.5]];portConstraint=eastwest;fontSize=15;rounded=1;labelBackgroundColor=none;fontColor=#143642;" vertex="1" parent="r1LKMjyL0y6_kXp-Capa-187">
          <mxGeometry y="116" width="353" height="26" as="geometry" />
        </mxCell>
        <mxCell id="r1LKMjyL0y6_kXp-Capa-193" value="+ updateDefaultPrintingPages()" style="text;align=left;verticalAlign=top;spacingLeft=4;spacingRight=4;overflow=hidden;rotatable=0;points=[[0,0.5],[1,0.5]];portConstraint=eastwest;fontSize=15;rounded=1;labelBackgroundColor=none;fontColor=#143642;" vertex="1" parent="r1LKMjyL0y6_kXp-Capa-187">
          <mxGeometry y="142" width="353" height="26" as="geometry" />
        </mxCell>
        <mxCell id="r1LKMjyL0y6_kXp-Capa-194" value="+ updateDate()" style="text;align=left;verticalAlign=top;spacingLeft=4;spacingRight=4;overflow=hidden;rotatable=0;points=[[0,0.5],[1,0.5]];portConstraint=eastwest;fontSize=15;rounded=1;labelBackgroundColor=none;fontColor=#143642;" vertex="1" parent="r1LKMjyL0y6_kXp-Capa-187">
          <mxGeometry y="168" width="353" height="26" as="geometry" />
        </mxCell>
        <mxCell id="r1LKMjyL0y6_kXp-Capa-195" value="+ updatePermittedFileTypes()" style="text;align=left;verticalAlign=top;spacingLeft=4;spacingRight=4;overflow=hidden;rotatable=0;points=[[0,0.5],[1,0.5]];portConstraint=eastwest;fontSize=15;rounded=1;labelBackgroundColor=none;fontColor=#143642;" vertex="1" parent="r1LKMjyL0y6_kXp-Capa-187">
          <mxGeometry y="194" width="353" height="26" as="geometry" />
        </mxCell>
        <mxCell id="r1LKMjyL0y6_kXp-Capa-196" value="+ getDate()" style="text;align=left;verticalAlign=top;spacingLeft=4;spacingRight=4;overflow=hidden;rotatable=0;points=[[0,0.5],[1,0.5]];portConstraint=eastwest;fontSize=15;rounded=1;labelBackgroundColor=none;fontColor=#143642;" vertex="1" parent="r1LKMjyL0y6_kXp-Capa-187">
          <mxGeometry y="220" width="353" height="26" as="geometry" />
        </mxCell>
        <mxCell id="r1LKMjyL0y6_kXp-Capa-197" value="+ getDefaultPrintingPages()" style="text;align=left;verticalAlign=top;spacingLeft=4;spacingRight=4;overflow=hidden;rotatable=0;points=[[0,0.5],[1,0.5]];portConstraint=eastwest;fontSize=15;rounded=1;labelBackgroundColor=none;fontColor=#143642;" vertex="1" parent="r1LKMjyL0y6_kXp-Capa-187">
          <mxGeometry y="246" width="353" height="26" as="geometry" />
        </mxCell>
        <mxCell id="r1LKMjyL0y6_kXp-Capa-198" value="+ getListPermittedFileTypes()" style="text;align=left;verticalAlign=top;spacingLeft=4;spacingRight=4;overflow=hidden;rotatable=0;points=[[0,0.5],[1,0.5]];portConstraint=eastwest;fontSize=15;rounded=1;labelBackgroundColor=none;fontColor=#143642;" vertex="1" parent="r1LKMjyL0y6_kXp-Capa-187">
          <mxGeometry y="272" width="353" height="26" as="geometry" />
        </mxCell>
        <mxCell id="r1LKMjyL0y6_kXp-Capa-199" value="Date" style="swimlane;fontStyle=1;align=center;verticalAlign=top;childLayout=stackLayout;horizontal=1;startSize=26;horizontalStack=0;resizeParent=1;resizeLast=0;collapsible=1;marginBottom=0;rounded=1;shadow=0;strokeWidth=1;fontSize=15;fillColor=#FAE5C7;strokeColor=#0F8B8D;labelBackgroundColor=none;fontColor=#143642;" vertex="1" parent="1">
          <mxGeometry x="2249.5" y="1039" width="253" height="130" as="geometry">
            <mxRectangle x="550" y="140" width="160" height="26" as="alternateBounds" />
          </mxGeometry>
        </mxCell>
        <mxCell id="r1LKMjyL0y6_kXp-Capa-200" value="" style="line;html=1;strokeWidth=1;align=left;verticalAlign=middle;spacingTop=-1;spacingLeft=3;spacingRight=3;rotatable=0;labelPosition=right;points=[];portConstraint=eastwest;fontSize=15;rounded=1;labelBackgroundColor=none;fillColor=#FAE5C7;strokeColor=#0F8B8D;fontColor=#143642;" vertex="1" parent="r1LKMjyL0y6_kXp-Capa-199">
          <mxGeometry y="26" width="253" height="58" as="geometry" />
        </mxCell>
        <mxCell id="r1LKMjyL0y6_kXp-Capa-201" value=" + addDefaultPrintDate(date: Date)" style="text;align=left;verticalAlign=top;spacingLeft=4;spacingRight=4;overflow=hidden;rotatable=0;points=[[0,0.5],[1,0.5]];portConstraint=eastwest;fontSize=15;rounded=1;labelBackgroundColor=none;fontColor=#143642;" vertex="1" parent="r1LKMjyL0y6_kXp-Capa-199">
          <mxGeometry y="84" width="253" height="28" as="geometry" />
        </mxCell>
        <mxCell id="r1LKMjyL0y6_kXp-Capa-202" value="Permitted filel types" style="swimlane;fontStyle=1;align=center;verticalAlign=top;childLayout=stackLayout;horizontal=1;startSize=26;horizontalStack=0;resizeParent=1;resizeLast=0;collapsible=1;marginBottom=0;rounded=1;shadow=0;strokeWidth=1;fontSize=15;fillColor=#FAE5C7;strokeColor=#0F8B8D;labelBackgroundColor=none;fontColor=#143642;" vertex="1" parent="1">
          <mxGeometry x="2537.5" y="1039" width="299.62" height="130" as="geometry">
            <mxRectangle x="550" y="140" width="160" height="26" as="alternateBounds" />
          </mxGeometry>
        </mxCell>
        <mxCell id="r1LKMjyL0y6_kXp-Capa-203" value="- " style="text;align=left;verticalAlign=top;spacingLeft=4;spacingRight=4;overflow=hidden;rotatable=0;points=[[0,0.5],[1,0.5]];portConstraint=eastwest;fontSize=15;rounded=1;labelBackgroundColor=none;fontColor=#143642;" vertex="1" parent="r1LKMjyL0y6_kXp-Capa-202">
          <mxGeometry y="26" width="299.62" height="26" as="geometry" />
        </mxCell>
        <mxCell id="r1LKMjyL0y6_kXp-Capa-204" value="" style="line;html=1;strokeWidth=1;align=left;verticalAlign=middle;spacingTop=-1;spacingLeft=3;spacingRight=3;rotatable=0;labelPosition=right;points=[];portConstraint=eastwest;fontSize=15;rounded=1;labelBackgroundColor=none;fillColor=#FAE5C7;strokeColor=#0F8B8D;fontColor=#143642;" vertex="1" parent="r1LKMjyL0y6_kXp-Capa-202">
          <mxGeometry y="52" width="299.62" height="8" as="geometry" />
        </mxCell>
        <mxCell id="r1LKMjyL0y6_kXp-Capa-205" value="+ addPermittedFileType(fileType: String)" style="text;align=left;verticalAlign=top;spacingLeft=4;spacingRight=4;overflow=hidden;rotatable=0;points=[[0,0.5],[1,0.5]];portConstraint=eastwest;fontSize=15;rounded=1;labelBackgroundColor=none;fontColor=#143642;" vertex="1" parent="r1LKMjyL0y6_kXp-Capa-202">
          <mxGeometry y="60" width="299.62" height="28" as="geometry" />
        </mxCell>
        <mxCell id="r1LKMjyL0y6_kXp-Capa-206" value="+ removePermittedFileType(fileType: String)" style="text;align=left;verticalAlign=top;spacingLeft=4;spacingRight=4;overflow=hidden;rotatable=0;points=[[0,0.5],[1,0.5]];portConstraint=eastwest;fontSize=15;rounded=1;labelBackgroundColor=none;fontColor=#143642;" vertex="1" parent="r1LKMjyL0y6_kXp-Capa-202">
          <mxGeometry y="88" width="299.62" height="26" as="geometry" />
        </mxCell>
        <mxCell id="r1LKMjyL0y6_kXp-Capa-207" value="Number of pages" style="swimlane;fontStyle=1;align=center;verticalAlign=top;childLayout=stackLayout;horizontal=1;startSize=26;horizontalStack=0;resizeParent=1;resizeLast=0;collapsible=1;marginBottom=0;rounded=1;shadow=0;strokeWidth=1;fontSize=15;fillColor=#FAE5C7;strokeColor=#0F8B8D;labelBackgroundColor=none;fontColor=#143642;" vertex="1" parent="1">
          <mxGeometry x="2863.5" y="1034" width="283" height="130" as="geometry">
            <mxRectangle x="550" y="140" width="160" height="26" as="alternateBounds" />
          </mxGeometry>
        </mxCell>
        <mxCell id="r1LKMjyL0y6_kXp-Capa-208" value="- " style="text;align=left;verticalAlign=top;spacingLeft=4;spacingRight=4;overflow=hidden;rotatable=0;points=[[0,0.5],[1,0.5]];portConstraint=eastwest;fontSize=15;rounded=1;labelBackgroundColor=none;fontColor=#143642;" vertex="1" parent="r1LKMjyL0y6_kXp-Capa-207">
          <mxGeometry y="26" width="283" height="26" as="geometry" />
        </mxCell>
        <mxCell id="r1LKMjyL0y6_kXp-Capa-209" value="" style="line;html=1;strokeWidth=1;align=left;verticalAlign=middle;spacingTop=-1;spacingLeft=3;spacingRight=3;rotatable=0;labelPosition=right;points=[];portConstraint=eastwest;fontSize=15;rounded=1;labelBackgroundColor=none;fillColor=#FAE5C7;strokeColor=#0F8B8D;fontColor=#143642;" vertex="1" parent="r1LKMjyL0y6_kXp-Capa-207">
          <mxGeometry y="52" width="283" height="8" as="geometry" />
        </mxCell>
        <mxCell id="r1LKMjyL0y6_kXp-Capa-210" value="+ setDefaultNumberOfPages(pages: int)" style="text;align=left;verticalAlign=top;spacingLeft=4;spacingRight=4;overflow=hidden;rotatable=0;points=[[0,0.5],[1,0.5]];portConstraint=eastwest;fontSize=15;rounded=1;labelBackgroundColor=none;fontColor=#143642;" vertex="1" parent="r1LKMjyL0y6_kXp-Capa-207">
          <mxGeometry y="60" width="283" height="26" as="geometry" />
        </mxCell>
        <mxCell id="r1LKMjyL0y6_kXp-Capa-211" value="" style="endArrow=block;endSize=15;endFill=0;shadow=0;strokeWidth=1;rounded=1;edgeStyle=elbowEdgeStyle;elbow=vertical;entryX=0.5;entryY=1;entryDx=0;entryDy=0;exitX=0.5;exitY=0;exitDx=0;exitDy=0;fontSize=15;labelBackgroundColor=none;strokeColor=#A8201A;fontColor=default;" edge="1" parent="1" source="r1LKMjyL0y6_kXp-Capa-202" target="r1LKMjyL0y6_kXp-Capa-213">
          <mxGeometry width="160" relative="1" as="geometry">
            <mxPoint x="1303.5" y="1031" as="sourcePoint" />
            <mxPoint x="1303.25" y="930.9999999999998" as="targetPoint" />
          </mxGeometry>
        </mxCell>
        <mxCell id="r1LKMjyL0y6_kXp-Capa-212" value="" style="endArrow=none;html=1;rounded=1;fontSize=15;exitX=0.542;exitY=0.018;exitDx=0;exitDy=0;exitPerimeter=0;labelBackgroundColor=none;strokeColor=#A8201A;fontColor=default;" edge="1" parent="1" source="r1LKMjyL0y6_kXp-Capa-207">
          <mxGeometry width="50" height="50" relative="1" as="geometry">
            <mxPoint x="1636.5" y="1051" as="sourcePoint" />
            <mxPoint x="2371.5" y="1036" as="targetPoint" />
            <Array as="points">
              <mxPoint x="3022.5" y="998" />
            </Array>
          </mxGeometry>
        </mxCell>
        <mxCell id="r1LKMjyL0y6_kXp-Capa-213" value="Configuration" style="swimlane;fontStyle=1;align=center;verticalAlign=top;childLayout=stackLayout;horizontal=1;startSize=26;horizontalStack=0;resizeParent=1;resizeLast=0;collapsible=1;marginBottom=0;rounded=1;shadow=0;strokeWidth=1;fontSize=15;fillColor=#FAE5C7;strokeColor=#0F8B8D;labelBackgroundColor=none;fontColor=#143642;" vertex="1" parent="1">
          <mxGeometry x="2378.5" y="772" width="269.25" height="180" as="geometry">
            <mxRectangle x="550" y="140" width="160" height="26" as="alternateBounds" />
          </mxGeometry>
        </mxCell>
        <mxCell id="r1LKMjyL0y6_kXp-Capa-214" value="- defaultNumberOfPages: Int" style="text;align=left;verticalAlign=top;spacingLeft=4;spacingRight=4;overflow=hidden;rotatable=0;points=[[0,0.5],[1,0.5]];portConstraint=eastwest;fontSize=15;rounded=1;labelBackgroundColor=none;fontColor=#143642;" vertex="1" parent="r1LKMjyL0y6_kXp-Capa-213">
          <mxGeometry y="26" width="269.25" height="26" as="geometry" />
        </mxCell>
        <mxCell id="r1LKMjyL0y6_kXp-Capa-215" value="- permittedFileTypes: List&lt;String&gt;" style="text;align=left;verticalAlign=top;spacingLeft=4;spacingRight=4;overflow=hidden;rotatable=0;points=[[0,0.5],[1,0.5]];portConstraint=eastwest;fontSize=15;rounded=1;labelBackgroundColor=none;fontColor=#143642;" vertex="1" parent="r1LKMjyL0y6_kXp-Capa-213">
          <mxGeometry y="52" width="269.25" height="26" as="geometry" />
        </mxCell>
        <mxCell id="r1LKMjyL0y6_kXp-Capa-216" value="- defaultPrintDates: Date" style="text;align=left;verticalAlign=top;spacingLeft=4;spacingRight=4;overflow=hidden;rotatable=0;points=[[0,0.5],[1,0.5]];portConstraint=eastwest;fontSize=15;rounded=1;labelBackgroundColor=none;fontColor=#143642;" vertex="1" parent="r1LKMjyL0y6_kXp-Capa-213">
          <mxGeometry y="78" width="269.25" height="21" as="geometry" />
        </mxCell>
        <mxCell id="r1LKMjyL0y6_kXp-Capa-217" value="" style="line;html=1;strokeWidth=1;align=left;verticalAlign=middle;spacingTop=-1;spacingLeft=3;spacingRight=3;rotatable=0;labelPosition=right;points=[];portConstraint=eastwest;fontSize=15;rounded=1;labelBackgroundColor=none;fillColor=#FAE5C7;strokeColor=#0F8B8D;fontColor=#143642;" vertex="1" parent="r1LKMjyL0y6_kXp-Capa-213">
          <mxGeometry y="99" width="269.25" height="16" as="geometry" />
        </mxCell>
        <mxCell id="r1LKMjyL0y6_kXp-Capa-218" value="" style="endArrow=open;endFill=1;endSize=12;html=1;rounded=1;exitX=1;exitY=0.5;exitDx=0;exitDy=0;labelBackgroundColor=none;strokeColor=#A8201A;fontColor=default;entryX=0.5;entryY=0;entryDx=0;entryDy=0;" edge="1" parent="1" source="r1LKMjyL0y6_kXp-Capa-194" target="r1LKMjyL0y6_kXp-Capa-213">
          <mxGeometry width="160" relative="1" as="geometry">
            <mxPoint x="2752.4999999999995" y="620" as="sourcePoint" />
            <mxPoint x="3425.1250000000005" y="727.9999999999998" as="targetPoint" />
            <Array as="points">
              <mxPoint x="2243.5" y="620" />
              <mxPoint x="2243.5" y="669" />
            </Array>
          </mxGeometry>
        </mxCell>
        <mxCell id="r1LKMjyL0y6_kXp-Capa-219" value="" style="endArrow=open;endFill=1;endSize=12;html=1;rounded=1;exitX=1;exitY=0.5;exitDx=0;exitDy=0;entryX=0.5;entryY=0;entryDx=0;entryDy=0;labelBackgroundColor=none;strokeColor=#A8201A;fontColor=default;" edge="1" parent="1" source="r1LKMjyL0y6_kXp-Capa-186" target="r1LKMjyL0y6_kXp-Capa-223">
          <mxGeometry width="160" relative="1" as="geometry">
            <mxPoint x="1499" y="506" as="sourcePoint" />
            <mxPoint x="1840.5" y="543" as="targetPoint" />
            <Array as="points" />
          </mxGeometry>
        </mxCell>
        <mxCell id="r1LKMjyL0y6_kXp-Capa-220" value="" style="endArrow=open;endFill=1;endSize=12;html=1;rounded=1;exitX=0;exitY=0.5;exitDx=0;exitDy=0;labelBackgroundColor=none;strokeColor=#A8201A;fontColor=default;entryX=1;entryY=1;entryDx=0;entryDy=0;" edge="1" parent="1" source="r1LKMjyL0y6_kXp-Capa-188" target="r1LKMjyL0y6_kXp-Capa-168">
          <mxGeometry width="160" relative="1" as="geometry">
            <mxPoint x="1509.5" y="542" as="sourcePoint" />
            <mxPoint x="1458.5" y="278" as="targetPoint" />
            <Array as="points" />
          </mxGeometry>
        </mxCell>
        <mxCell id="r1LKMjyL0y6_kXp-Capa-221" value="" style="endArrow=open;endFill=1;endSize=12;html=1;rounded=1;entryX=0.5;entryY=0;entryDx=0;entryDy=0;labelBackgroundColor=none;strokeColor=#A8201A;fontColor=default;exitX=0.5;exitY=1;exitDx=0;exitDy=0;" edge="1" parent="1" source="r1LKMjyL0y6_kXp-Capa-176" target="r1LKMjyL0y6_kXp-Capa-187">
          <mxGeometry width="160" relative="1" as="geometry">
            <mxPoint x="2013.5" y="315" as="sourcePoint" />
            <mxPoint x="1502.5" y="283" as="targetPoint" />
            <Array as="points" />
          </mxGeometry>
        </mxCell>
        <mxCell id="r1LKMjyL0y6_kXp-Capa-222" value="" style="endArrow=diamondThin;endFill=0;endSize=24;html=1;rounded=0;entryX=1;entryY=0;entryDx=0;entryDy=0;exitX=0.004;exitY=0.914;exitDx=0;exitDy=0;exitPerimeter=0;labelBackgroundColor=none;strokeColor=#A8201A;fontColor=default;" edge="1" parent="1" source="r1LKMjyL0y6_kXp-Capa-180" target="r1LKMjyL0y6_kXp-Capa-173">
          <mxGeometry width="160" relative="1" as="geometry">
            <mxPoint x="1818.5" y="239.0000000000001" as="sourcePoint" />
            <mxPoint x="1808.5" y="279" as="targetPoint" />
          </mxGeometry>
        </mxCell>
        <mxCell id="r1LKMjyL0y6_kXp-Capa-223" value="ModifyModel" style="swimlane;fontStyle=1;align=center;verticalAlign=top;childLayout=stackLayout;horizontal=1;startSize=26;horizontalStack=0;resizeParent=1;resizeLast=0;collapsible=1;marginBottom=0;rounded=1;shadow=0;strokeWidth=1;fontSize=15;fillColor=#FAE5C7;strokeColor=#0F8B8D;labelBackgroundColor=none;fontColor=#143642;" vertex="1" parent="1">
          <mxGeometry x="1459.75" y="879" width="353" height="312" as="geometry">
            <mxRectangle x="550" y="140" width="160" height="26" as="alternateBounds" />
          </mxGeometry>
        </mxCell>
        <mxCell id="r1LKMjyL0y6_kXp-Capa-224" value="- views: Collection &lt;SystemConfigurationView&gt;" style="text;align=left;verticalAlign=top;spacingLeft=4;spacingRight=4;overflow=hidden;rotatable=0;points=[[0,0.5],[1,0.5]];portConstraint=eastwest;fontSize=15;rounded=1;labelBackgroundColor=none;fontColor=#143642;" vertex="1" parent="r1LKMjyL0y6_kXp-Capa-223">
          <mxGeometry y="26" width="353" height="26" as="geometry" />
        </mxCell>
        <mxCell id="r1LKMjyL0y6_kXp-Capa-225" value="" style="line;html=1;strokeWidth=1;align=left;verticalAlign=middle;spacingTop=-1;spacingLeft=3;spacingRight=3;rotatable=0;labelPosition=right;points=[];portConstraint=eastwest;fontSize=15;rounded=1;labelBackgroundColor=none;fillColor=#FAE5C7;strokeColor=#0F8B8D;fontColor=#143642;" vertex="1" parent="r1LKMjyL0y6_kXp-Capa-223">
          <mxGeometry y="52" width="353" height="8" as="geometry" />
        </mxCell>
        <mxCell id="r1LKMjyL0y6_kXp-Capa-226" value="+ create(): InforSystemConfigurationView" style="text;align=left;verticalAlign=top;spacingLeft=4;spacingRight=4;overflow=hidden;rotatable=0;points=[[0,0.5],[1,0.5]];portConstraint=eastwest;fontSize=15;rounded=1;labelBackgroundColor=none;fontColor=#143642;" vertex="1" parent="r1LKMjyL0y6_kXp-Capa-223">
          <mxGeometry y="60" width="353" height="26" as="geometry" />
        </mxCell>
        <mxCell id="r1LKMjyL0y6_kXp-Capa-227" value="&amp;nbsp;+ updateState()" style="text;whiteSpace=wrap;html=1;fontSize=15;rounded=1;labelBackgroundColor=none;fontColor=#143642;" vertex="1" parent="r1LKMjyL0y6_kXp-Capa-223">
          <mxGeometry y="86" width="353" height="30" as="geometry" />
        </mxCell>
        <mxCell id="r1LKMjyL0y6_kXp-Capa-228" value="+ checkValidInput()&#xa;" style="text;align=left;verticalAlign=top;spacingLeft=4;spacingRight=4;overflow=hidden;rotatable=0;points=[[0,0.5],[1,0.5]];portConstraint=eastwest;fontSize=15;rounded=1;labelBackgroundColor=none;fontColor=#143642;" vertex="1" parent="r1LKMjyL0y6_kXp-Capa-223">
          <mxGeometry y="116" width="353" height="26" as="geometry" />
        </mxCell>
        <mxCell id="r1LKMjyL0y6_kXp-Capa-229" value="+ updateDefaultPrintingPages()" style="text;align=left;verticalAlign=top;spacingLeft=4;spacingRight=4;overflow=hidden;rotatable=0;points=[[0,0.5],[1,0.5]];portConstraint=eastwest;fontSize=15;rounded=1;labelBackgroundColor=none;fontColor=#143642;" vertex="1" parent="r1LKMjyL0y6_kXp-Capa-223">
          <mxGeometry y="142" width="353" height="26" as="geometry" />
        </mxCell>
        <mxCell id="r1LKMjyL0y6_kXp-Capa-230" value="+ updateDate()" style="text;align=left;verticalAlign=top;spacingLeft=4;spacingRight=4;overflow=hidden;rotatable=0;points=[[0,0.5],[1,0.5]];portConstraint=eastwest;fontSize=15;rounded=1;labelBackgroundColor=none;fontColor=#143642;" vertex="1" parent="r1LKMjyL0y6_kXp-Capa-223">
          <mxGeometry y="168" width="353" height="26" as="geometry" />
        </mxCell>
        <mxCell id="r1LKMjyL0y6_kXp-Capa-231" value="+ updatePermittedFileTypes()" style="text;align=left;verticalAlign=top;spacingLeft=4;spacingRight=4;overflow=hidden;rotatable=0;points=[[0,0.5],[1,0.5]];portConstraint=eastwest;fontSize=15;rounded=1;labelBackgroundColor=none;fontColor=#143642;" vertex="1" parent="r1LKMjyL0y6_kXp-Capa-223">
          <mxGeometry y="194" width="353" height="26" as="geometry" />
        </mxCell>
        <mxCell id="r1LKMjyL0y6_kXp-Capa-232" value="+ getDate()" style="text;align=left;verticalAlign=top;spacingLeft=4;spacingRight=4;overflow=hidden;rotatable=0;points=[[0,0.5],[1,0.5]];portConstraint=eastwest;fontSize=15;rounded=1;labelBackgroundColor=none;fontColor=#143642;" vertex="1" parent="r1LKMjyL0y6_kXp-Capa-223">
          <mxGeometry y="220" width="353" height="26" as="geometry" />
        </mxCell>
        <mxCell id="r1LKMjyL0y6_kXp-Capa-233" value="+ getDefaultPrintingPages()" style="text;align=left;verticalAlign=top;spacingLeft=4;spacingRight=4;overflow=hidden;rotatable=0;points=[[0,0.5],[1,0.5]];portConstraint=eastwest;fontSize=15;rounded=1;labelBackgroundColor=none;fontColor=#143642;" vertex="1" parent="r1LKMjyL0y6_kXp-Capa-223">
          <mxGeometry y="246" width="353" height="26" as="geometry" />
        </mxCell>
        <mxCell id="r1LKMjyL0y6_kXp-Capa-234" value="+ getListPermittedFileTypes()" style="text;align=left;verticalAlign=top;spacingLeft=4;spacingRight=4;overflow=hidden;rotatable=0;points=[[0,0.5],[1,0.5]];portConstraint=eastwest;fontSize=15;rounded=1;labelBackgroundColor=none;fontColor=#143642;" vertex="1" parent="r1LKMjyL0y6_kXp-Capa-223">
          <mxGeometry y="272" width="353" height="26" as="geometry" />
        </mxCell>
        <mxCell id="r1LKMjyL0y6_kXp-Capa-235" value="ModifyController" style="swimlane;fontStyle=1;align=center;verticalAlign=top;childLayout=stackLayout;horizontal=1;startSize=26;horizontalStack=0;resizeParent=1;resizeLast=0;collapsible=1;marginBottom=0;rounded=1;shadow=0;strokeWidth=1;fontSize=15;fillColor=#FAE5C7;strokeColor=#0F8B8D;labelBackgroundColor=none;fontColor=#143642;" vertex="1" parent="1">
          <mxGeometry x="1441.5" y="1236" width="397" height="201" as="geometry">
            <mxRectangle x="550" y="140" width="160" height="26" as="alternateBounds" />
          </mxGeometry>
        </mxCell>
        <mxCell id="r1LKMjyL0y6_kXp-Capa-236" value="-systemConfigurationModel: SystemConfigurationModel" style="text;align=left;verticalAlign=top;spacingLeft=4;spacingRight=4;overflow=hidden;rotatable=0;points=[[0,0.5],[1,0.5]];portConstraint=eastwest;fontSize=15;rounded=1;labelBackgroundColor=none;fontColor=#143642;" vertex="1" parent="r1LKMjyL0y6_kXp-Capa-235">
          <mxGeometry y="26" width="397" height="26" as="geometry" />
        </mxCell>
        <mxCell id="r1LKMjyL0y6_kXp-Capa-237" value="" style="line;html=1;strokeWidth=1;align=left;verticalAlign=middle;spacingTop=-1;spacingLeft=3;spacingRight=3;rotatable=0;labelPosition=right;points=[];portConstraint=eastwest;fontSize=15;rounded=1;labelBackgroundColor=none;fillColor=#FAE5C7;strokeColor=#0F8B8D;fontColor=#143642;" vertex="1" parent="r1LKMjyL0y6_kXp-Capa-235">
          <mxGeometry y="52" width="397" height="8" as="geometry" />
        </mxCell>
        <mxCell id="r1LKMjyL0y6_kXp-Capa-238" value="+ create(): SystemConfigurationController" style="text;align=left;verticalAlign=top;spacingLeft=4;spacingRight=4;overflow=hidden;rotatable=0;points=[[0,0.5],[1,0.5]];portConstraint=eastwest;fontSize=15;rounded=1;labelBackgroundColor=none;fontColor=#143642;" vertex="1" parent="r1LKMjyL0y6_kXp-Capa-235">
          <mxGeometry y="60" width="397" height="26" as="geometry" />
        </mxCell>
        <mxCell id="r1LKMjyL0y6_kXp-Capa-239" value="+ getInfoSystemConfiguration()" style="text;align=left;verticalAlign=top;spacingLeft=4;spacingRight=4;overflow=hidden;rotatable=0;points=[[0,0.5],[1,0.5]];portConstraint=eastwest;fontSize=15;rounded=1;labelBackgroundColor=none;fontColor=#143642;" vertex="1" parent="r1LKMjyL0y6_kXp-Capa-235">
          <mxGeometry y="86" width="397" height="26" as="geometry" />
        </mxCell>
        <mxCell id="r1LKMjyL0y6_kXp-Capa-240" value="&amp;nbsp;+ saveChanges()" style="text;whiteSpace=wrap;html=1;fontSize=15;rounded=1;labelBackgroundColor=none;fontColor=#143642;" vertex="1" parent="r1LKMjyL0y6_kXp-Capa-235">
          <mxGeometry y="112" width="397" height="30" as="geometry" />
        </mxCell>
        <mxCell id="r1LKMjyL0y6_kXp-Capa-241" value="" style="endArrow=open;endFill=1;endSize=12;html=1;rounded=1;exitX=0.5;exitY=1;exitDx=0;exitDy=0;entryX=0.5;entryY=0;entryDx=0;entryDy=0;labelBackgroundColor=none;strokeColor=#A8201A;fontColor=default;" edge="1" parent="1" source="r1LKMjyL0y6_kXp-Capa-223" target="r1LKMjyL0y6_kXp-Capa-235">
          <mxGeometry width="160" relative="1" as="geometry">
            <mxPoint x="1469.5" y="550" as="sourcePoint" />
            <mxPoint x="1646.5" y="889" as="targetPoint" />
            <Array as="points" />
          </mxGeometry>
        </mxCell>
        <mxCell id="3O2F7Z_v3nn_KyYbLpbR-1" value="" style="whiteSpace=wrap;html=1;" vertex="1" parent="1">
          <mxGeometry x="1783.5107116699219" y="-244.6534423828125" width="120" height="60" as="geometry" />
        </mxCell>
      </root>
    </mxGraphModel>
  </diagram>
</mxfile>
